<?xml version="1.0" encoding="UTF-8"?>
<svg version="1.1" xmlns="http://www.w3.org/2000/svg" width="512" height="512">
<path d="M0 0 C5.8273414 3.52146867 10.55812014 8.98892326 12.5625 15.5 C12.86429589 18.92667858 12.84777713 22.34385834 12.8409729 25.78205872 C12.8467653 26.82763669 12.8525577 27.87321467 12.85852563 28.95047683 C12.87554999 32.45895903 12.87840427 35.96730988 12.88134766 39.47583008 C12.89064414 41.9888542 12.90081238 44.50187523 12.91178894 47.01489258 C12.93346721 52.42779974 12.9490718 57.84067038 12.95915604 63.25361061 C12.97374659 71.07978334 12.99928446 78.90589028 13.02748732 86.73202439 C13.07294848 99.42964923 13.10956608 112.12728354 13.140625 124.82495117 C13.17081331 137.15895247 13.20516488 149.49293059 13.24511719 161.8269043 C13.24880951 162.96745968 13.24880951 162.96745968 13.25257643 164.13105658 C13.26495108 167.94564181 13.2774076 171.76022676 13.28990483 175.57481158 C13.3934625 207.21650976 13.4825218 238.85823316 13.5625 270.5 C14.84001426 269.38365864 16.11731719 268.26707543 17.39453125 267.15039062 C18.10585205 266.52861938 18.81717285 265.90684814 19.55004883 265.26623535 C21.90647908 263.19810547 24.23834194 261.10430527 26.5625 259 C30.17926345 255.73609152 33.82639608 252.51209051 37.5 249.3125 C39.87214429 247.22788836 42.21806065 245.11571356 44.5625 243 C48.17926345 239.73609152 51.82639608 236.51209051 55.5 233.3125 C57.87214429 231.22788836 60.21806065 229.11571356 62.5625 227 C66.17926345 223.73609152 69.82639608 220.51209051 73.5 217.3125 C75.87214429 215.22788836 78.21806065 213.11571356 80.5625 211 C84.17926345 207.73609152 87.82639608 204.51209051 91.5 201.3125 C93.87214429 199.22788836 96.21806065 197.11571356 98.5625 195 C99.40941406 194.23816406 100.25632812 193.47632813 101.12890625 192.69140625 C102.61954927 191.34910972 104.10725333 190.00352924 105.58984375 188.65234375 C114.96639691 180.23453836 122.28118301 174.0725339 135.203125 174.23046875 C142.22078687 174.79351371 146.7620208 177.29090657 151.5 182.4375 C155.70895801 187.44247844 156.86571167 191.8012987 156.9375 198.3125 C156.96585937 199.47394531 156.99421875 200.63539063 157.0234375 201.83203125 C155.970145 210.21374023 151.46458331 215.14180987 145.3125 220.5625 C144.63936768 221.17246826 143.96623535 221.78243652 143.27270508 222.41088867 C141.38033724 224.12017581 139.47489788 225.81318898 137.5625 227.5 C136.76714844 228.20640625 135.97179687 228.9128125 135.15234375 229.640625 C133.92321615 230.72084392 132.6891536 231.79548486 131.44921875 232.86328125 C129.12591213 234.87873772 126.84501535 236.93848462 124.5625 239 C120.94573655 242.26390848 117.29860392 245.48790949 113.625 248.6875 C111.25285571 250.77211164 108.90693935 252.88428644 106.5625 255 C102.94573655 258.26390848 99.29860392 261.48790949 95.625 264.6875 C93.25285571 266.77211164 90.90693935 268.88428644 88.5625 271 C84.94573655 274.26390848 81.29860392 277.48790949 77.625 280.6875 C75.25285571 282.77211164 72.90693935 284.88428644 70.5625 287 C66.94573655 290.26390848 63.29860392 293.48790949 59.625 296.6875 C57.25285571 298.77211164 54.90693935 300.88428644 52.5625 303 C48.94573655 306.26390848 45.29860392 309.48790949 41.625 312.6875 C39.25285571 314.77211164 36.90693935 316.88428644 34.5625 319 C30.94362436 322.2658146 27.29566615 325.49305031 23.6171875 328.69140625 C21.28229109 330.74664777 18.98670466 332.84243033 16.6875 334.9375 C-0.95693296 350.76877804 -0.95693296 350.76877804 -13.75 350.8984375 C-20.90238626 349.83805465 -25.91521255 346.80058876 -31.1875 342 C-31.78385254 341.47317627 -32.38020508 340.94635254 -32.99462891 340.40356445 C-34.82145581 338.78238275 -36.63175398 337.14460724 -38.4375 335.5 C-38.99083008 334.99774902 -39.54416016 334.49549805 -40.11425781 333.97802734 C-42.67522987 331.64895433 -45.22477254 329.30802533 -47.765625 326.95703125 C-50.61725673 324.33469739 -53.51880071 321.78011681 -56.4453125 319.2421875 C-58.79770635 317.18499601 -61.11784966 315.09403085 -63.4375 313 C-66.41812721 310.31016569 -69.40995233 307.63689636 -72.4375 305 C-76.33262811 301.60746907 -80.16532763 298.14805799 -84 294.6875 C-86.13167481 292.77445851 -88.2776911 290.88112388 -90.4375 289 C-94.33262811 285.60746907 -98.16532763 282.14805799 -102 278.6875 C-104.13167481 276.77445851 -106.2776911 274.88112388 -108.4375 273 C-112.33262811 269.60746907 -116.16532763 266.14805799 -120 262.6875 C-122.13167481 260.77445851 -124.2776911 258.88112388 -126.4375 257 C-130.33262811 253.60746907 -134.16532763 250.14805799 -138 246.6875 C-140.13167481 244.77445851 -142.2776911 242.88112388 -144.4375 241 C-147.46504767 238.36310364 -150.45687279 235.68983431 -153.4375 233 C-156.4400731 230.29080809 -159.45309045 227.5967312 -162.5 224.9375 C-163.13550781 224.37546875 -163.77101563 223.8134375 -164.42578125 223.234375 C-165.85363792 222.00336847 -167.313209 220.80872723 -168.79296875 219.640625 C-175.20649195 214.40936627 -178.47165617 209.44756463 -179.80859375 201.21484375 C-180.20937695 194.3286596 -178.16660516 187.65534284 -173.63671875 182.41796875 C-167.19263879 176.47439985 -160.99490008 173.8442782 -152.1953125 174.16796875 C-142.3227664 175.35658974 -136.35007582 181.87544817 -129.4375 188.5 C-128.0918949 189.69719277 -126.73860043 190.88584479 -125.375 192.0625 C-122.36676472 194.67701942 -119.39619751 197.32951656 -116.4375 200 C-113.45687279 202.68983431 -110.46504767 205.36310364 -107.4375 208 C-103.54237189 211.39253093 -99.70967237 214.85194201 -95.875 218.3125 C-93.74332519 220.22554149 -91.5973089 222.11887612 -89.4375 224 C-85.54237189 227.39253093 -81.70967237 230.85194201 -77.875 234.3125 C-75.74332519 236.22554149 -73.5973089 238.11887612 -71.4375 240 C-65.84770011 244.87143203 -60.36215102 249.8589515 -54.859375 254.828125 C-50.92033694 258.38050902 -46.97610679 261.92660498 -43 265.4375 C-42.38253906 265.98277344 -41.76507813 266.52804687 -41.12890625 267.08984375 C-39.28132494 268.68122039 -39.28132494 268.68122039 -36.4375 270.5 C-36.43603344 269.19317261 -36.43456688 267.88634521 -36.43305588 266.53991699 C-36.39734514 235.51055862 -36.34109137 204.48131299 -36.25957905 173.45204371 C-36.24956173 169.63192926 -36.23971757 165.81181439 -36.22998047 161.99169922 C-36.22706841 160.85093679 -36.22706841 160.85093679 -36.22409752 159.68712866 C-36.19308602 147.37703791 -36.17609925 135.06696578 -36.16430578 122.75684333 C-36.1518898 110.12321292 -36.12437835 97.48968024 -36.08288693 84.85611153 C-36.05776424 77.06203211 -36.04438182 69.2681148 -36.04607043 61.47399431 C-36.04610373 55.49496517 -36.02512301 49.51619706 -35.99633217 43.53722954 C-35.98781261 41.08629196 -35.98609712 38.63531984 -35.99169731 36.18437386 C-35.99832738 32.83682851 -35.98043866 29.49026842 -35.95648193 26.14282227 C-35.96424235 25.17393318 -35.97200277 24.2050441 -35.97999835 23.20679474 C-35.88912326 16.02897456 -34.24528984 10.70411803 -29.47265625 5.2578125 C-28.49619141 4.44957031 -28.49619141 4.44957031 -27.5 3.625 C-26.85160156 3.07070313 -26.20320312 2.51640625 -25.53515625 1.9453125 C-18.47077988 -2.92213491 -7.84396301 -3.47595223 0 0 Z " fill="#689EFA" transform="translate(267.4375,41.5)"/>
<path d="M0 0 C0.67534518 -0.00350607 1.35069035 -0.00701215 2.04650053 -0.01062447 C4.31389984 -0.01994278 6.58104255 -0.01501411 8.84845257 -0.01015663 C10.48873898 -0.01389268 12.12902361 -0.01849402 13.76930541 -0.02388728 C18.2804105 -0.03613834 22.79144155 -0.03585433 27.30255949 -0.03349853 C32.16634908 -0.03309089 37.03011476 -0.0441244 41.89389324 -0.05361366 C51.42436117 -0.07023615 60.95480435 -0.07572377 70.48528556 -0.07683842 C78.23109749 -0.0777883 85.97690126 -0.08189557 93.72271061 -0.08823967 C115.67698501 -0.10585544 137.63123985 -0.11507801 159.58552138 -0.11357872 C161.36136453 -0.11345885 161.36136453 -0.11345885 163.17308331 -0.11333656 C164.35842199 -0.1132548 165.54376068 -0.11317304 166.76501872 -0.1130888 C185.97784664 -0.11227579 205.19059617 -0.13141637 224.40340141 -0.1596133 C244.12458035 -0.18832826 263.84572104 -0.20215436 283.56692141 -0.20042574 C294.64144874 -0.19976137 305.7158939 -0.20527462 316.79040241 -0.22678185 C326.21914667 -0.24497536 335.64777153 -0.24935602 345.07652573 -0.235763 C349.88764322 -0.22922414 354.69853152 -0.22914928 359.50962734 -0.2464695 C363.91461041 -0.26216466 368.31918186 -0.25937307 372.72415467 -0.24190123 C374.31700559 -0.23882349 375.90988696 -0.24249287 377.50270198 -0.25362138 C386.85248436 -0.31461482 394.08231171 -0.2198536 401.43358135 6.22211266 C401.97240948 6.87308922 402.5112376 7.52406578 403.06639385 8.19476891 C403.62069073 8.84316734 404.1749876 9.49156578 404.74608135 10.15961266 C409.22551482 16.66084448 408.86603114 23.62867807 408.19139385 31.25726891 C406.51053803 37.91686224 401.72761063 42.44274338 396.19139385 46.25726891 C392.14708816 48.22710664 388.86009031 48.50929348 384.3827877 48.51453781 C383.70744253 48.51804389 383.03209735 48.52154996 382.33628717 48.52516228 C380.06888786 48.53448059 377.80174516 48.52955192 375.53433514 48.52469444 C373.89404873 48.52843049 372.2537641 48.53303183 370.6134823 48.53842509 C366.1023772 48.55067615 361.59134615 48.55039214 357.08022821 48.54803634 C352.21643862 48.5476287 347.35267295 48.55866221 342.48889446 48.56815147 C332.95842654 48.58477396 323.42798335 48.59026158 313.89750215 48.59137623 C306.15169021 48.59232611 298.40588645 48.59643338 290.6600771 48.60277748 C268.70580269 48.62039325 246.75154785 48.62961582 224.79726633 48.62811653 C223.02142317 48.62799666 223.02142317 48.62799666 221.2097044 48.62787437 C220.02436571 48.62779261 218.83902702 48.62771085 217.61776898 48.62762661 C198.40494107 48.6268136 179.19219153 48.64595418 159.97938629 48.67415111 C140.25820736 48.70286607 120.53706667 48.71669217 100.81586629 48.71496356 C89.74133897 48.71429918 78.66689381 48.71981243 67.59238529 48.74131966 C58.16364103 48.75951317 48.73501618 48.76389383 39.30626198 48.75030081 C34.49514448 48.74376195 29.68425619 48.74368709 24.87316036 48.76100731 C20.46817729 48.77670247 16.06360584 48.77391089 11.65863303 48.75643905 C10.06578211 48.7533613 8.47290075 48.75703068 6.88008573 48.7681592 C-2.46969665 48.82915263 -9.69952401 48.73439141 -17.05079365 42.29242516 C-17.58962177 41.64144859 -18.1284499 40.99047203 -18.68360615 40.31976891 C-19.23790302 39.67137047 -19.7921999 39.02297203 -20.36329365 38.35492516 C-24.84272712 31.85369334 -24.48324343 24.88585974 -23.80860615 17.25726891 C-22.12775032 10.59767557 -17.34482293 6.07179443 -11.80860615 2.25726891 C-7.76430046 0.28743117 -4.47730261 0.00524433 0 0 Z " fill="#4D87DB" transform="translate(63.80860614776611,423.74273109436035)"/>
</svg>
